PathFileType	4	(X/Y/Z)	C:\Users\Willi\SynologyDrive\Deimel_MSc_Deadlift\Athlete_03\Athlete_3_22_07_06\dl_75\marker_experimental.trc
DataRate	CameraRate	NumFrames	NumMarkers	Units	OrigDataRate	OrigDataStartFrame	OrigNumFrames
200.000000	200.000000	4	59	mm	200.000000	2141	2855
Frame#	Time	BR			GLAB			RFHD			LFHD			C7			T6			SPINMOL			SPINM2			SPINM3			T12			BELTOL			BELT2			BELT3			SACROL			SACR2			SACR3			LTHOL			LTH2			LTH3			LSHAOL			LSHA2			LSHA3			LHEE			LTOE			LM5			RTHOL			RTH2			RTH3			RSHAOL			RSHA2			RSHA3			RHEE			RTOE			RM5			STRN			XIPH			LACR			LUAOL			LUA2			LUA3			LLAOL			LLA2			LLA3			LWRU			RACR			RUAOL			RUA2			RUA3			RLAOL			RLA2			RLA3			RWRU			BL			USERMO0			USERMO1			USERMO2			USERMO3			USERMO4			USERMO5			
		X1	Y1	Z1	X2	Y2	Z2	X3	Y3	Z3	X4	Y4	Z4	X5	Y5	Z5	X6	Y6	Z6	X7	Y7	Z7	X8	Y8	Z8	X9	Y9	Z9	X10	Y10	Z10	X11	Y11	Z11	X12	Y12	Z12	X13	Y13	Z13	X14	Y14	Z14	X15	Y15	Z15	X16	Y16	Z16	X17	Y17	Z17	X18	Y18	Z18	X19	Y19	Z19	X20	Y20	Z20	X21	Y21	Z21	X22	Y22	Z22	X23	Y23	Z23	X24	Y24	Z24	X25	Y25	Z25	X26	Y26	Z26	X27	Y27	Z27	X28	Y28	Z28	X29	Y29	Z29	X30	Y30	Z30	X31	Y31	Z31	X32	Y32	Z32	X33	Y33	Z33	X34	Y34	Z34	X35	Y35	Z35	X36	Y36	Z36	X37	Y37	Z37	X38	Y38	Z38	X39	Y39	Z39	X40	Y40	Z40	X41	Y41	Z41	X42	Y42	Z42	X43	Y43	Z43	X44	Y44	Z44	X45	Y45	Z45	X46	Y46	Z46	X47	Y47	Z47	X48	Y48	Z48	X49	Y49	Z49	X50	Y50	Z50	X51	Y51	Z51	X52	Y52	Z52	X53	Y53	Z53	X54	Y54	Z54	X55	Y55	Z55	X56	Y56	Z56	X57	Y57	Z57	X58	Y58	Z58	X59	Y59	Z59	

2142	10.705	190.0581665039062	643.4519653320312	-94.58429718017574	354.7003479003906	1470.55078125	-1193.255615234375	314.0052185058594	1519.119018554688	-1117.972900390625	316.404052734375	1518.683837890625	-1273.294311523438	93.09811401367188	1474.585083007812	-1196.531005859375	-11.10780715942383	1281.022583007812	-1205.26611328125	-20.58066558837891	1252.966064453125	-1209.94140625	-40.7423210144043	1196.802734375	-1156.684692382812	-32.11383438110352	1192.464477539062	-1205.408447265625	-30.63382339477539	1154.455810546875	-1203.981201171875	-62.88584518432617	1139.681762695312	-1203.7041015625	-72.69112396240234	1080.965454101562	-1150.450805664062	-78.85736083984375	1079.6494140625	-1200.176879882812	-79.62588500976562	1003.925231933594	-1225.847045898438	-69.31282806396484	1012.156372070313	-1176.121215820312	-107.855224609375	959.3204956054689	-1185.6416015625	47.4721565246582	759.9287109375001	-1421.135498046875	9.886503219604492	694.2861938476564	-1394.991943359375	54.14563751220703	698.7849121093751	-1418.218994140625	47.33562850952148	345.5196228027345	-1407.943237304688	14.07230663299561	274.9686889648439	-1394.384765625	60.59690093994141	285.0816040039064	-1404.21435546875	2.906726598739624	65.08319091796884	-1317.917358398438	212.7362060546875	74.63928222656259	-1332.480346679688	165.821533203125	52.76062011718759	-1437.610229492188	43.56452178955078	729.3325195312501	-995.4688110351562	86.07964324951172	662.9097290039064	-983.306396484375	40.40606307983398	667.5313110351564	-1003.276916503906	26.92859649658203	335.6650085449219	-1010.741943359375	74.47920989990234	272.1084594726563	-1011.18408203125	25.43800354003906	275.4404907226563	-1022.08935546875	1.080381512641907	63.46163940429695	-1114.562377929688	211.9167785644531	69.10277557373054	-1091.12646484375	165.1754913330078	64.95188140869146	-994.0214233398438	217.0664520263672	1359.954345703125	-1207.753540039062	245.8826293945312	1208.769775390625	-1206.82080078125	127.7566986083984	1368.193603515625	-1414.0771484375	120.6479949951172	1214.364379882812	-1472.133422851562	97.92471313476562	1153.57568359375	-1481.493896484375	149.1006927490234	1155.824584960938	-1476.036987304688	178.4723205566406	928.9989013671876	-1466.491333007812	163.7398529052734	865.9756469726564	-1475.797485351562	197.2194976806641	873.6265869140626	-1439.790161132812	184.0341033935547	775.7227172851564	-1457.09814453125	147.4768524169922	1362.157348632812	-1000.231201171875	166.7142181396484	1176.373413085938	-964.3993530273436	195.3460693359375	1122.970947265625	-990.1192016601561	165.9476013183594	1111.31005859375	-950.4647827148436	196.2822418212891	913.4028320312501	-965.9933471679688	209.2907562255859	859.5600585937501	-998.9984130859375	191.0454559326172	851.1052246093751	-951.97802734375	191.2582244873047	773.1313476562501	-953.9298706054688	128.6774444580078	651.3522338867189	-2316.0205078125	0.1594740003347397	0.2561840116977692	-0.4209930002689362	0.3241130113601685	2.787420034408569	-0.3209410011768339	2.933480024337769	0.05207600072026253	-0.0542897991836071	0.008500239811837673	0.08137819916009903	-0.01049270015209913	0.1051509976387024	0.03124270029366016	-0.02505929954349994	0.0798846036195755	0	0	
2143	10.71	189.9683837890625	643.0470581054688	-94.61517333984371	356.8054809570312	1469.570556640625	-1193.2841796875	316.2435302734375	1518.276245117188	-1118.012573242188	318.6136474609375	1517.771484375	-1273.338623046875	95.19524383544922	1474.323974609375	-1196.56005859375	-9.72747802734375	1281.2685546875	-1205.336059570312	-19.3524284362793	1253.268188476562	-1210.024169921875	-39.82735824584961	1197.223266601562	-1156.778442382812	-31.14666938781738	1192.823120117188	-1205.487670898438	-29.77873039245605	1154.758911132812	-1204.092041015625	-62.21147155761719	1140.14453125	-1203.790405273438	-72.34211730957031	1081.474975585938	-1150.544677734375	-78.45042419433594	1080.182373046875	-1200.2783203125	-79.52454376220703	1004.3388671875	-1225.913208007812	-69.25707244873047	1012.547058105469	-1176.1884765625	-107.8572540283203	959.7739257812501	-1185.760498046875	47.42716598510742	759.9414062500001	-1421.12548828125	9.789886474609375	694.3032226562501	-1395.05029296875	54.10939788818359	698.8106079101564	-1418.17578125	47.22888946533203	345.5100097656251	-1407.9638671875	13.99760150909424	274.936981201172	-1394.42578125	60.51513290405273	285.080047607422	-1404.217407226562	2.903084278106689	65.09232330322274	-1317.927856445312	212.7370452880859	74.64195251464852	-1332.486572265625	165.8215789794922	52.75210952758798	-1437.616943359375	43.40693283081055	729.3137207031251	-995.4012451171875	85.97325897216797	662.8983764648439	-983.2811889648438	40.26901245117188	667.5130615234376	-1003.216186523438	26.8944149017334	335.6677246093751	-1010.716125488281	74.46742248535156	272.1254272460938	-1011.177673339844	25.4021167755127	275.4484863281251	-1022.06298828125	1.08204197883606	63.48046112060554	-1114.557983398438	211.9222412109375	69.10087585449226	-1091.131958007812	165.1781616210938	64.95346832275396	-994.0280151367188	218.7498626708984	1359.275756835938	-1207.732299804688	246.9759979248047	1207.957641601562	-1206.7431640625	129.5539398193359	1367.784423828125	-1414.067138671875	122.0253829956055	1214.0068359375	-1472.067749023438	99.15034484863281	1153.285400390625	-1481.487915039062	150.3302001953125	1155.399536132812	-1475.991943359375	179.0389404296875	928.4968261718751	-1466.492065429688	164.151611328125	865.5114746093751	-1475.812133789062	197.6432495117188	873.0712280273439	-1439.800415039062	184.2145233154297	775.2062377929689	-1457.127075195312	149.0926666259766	1361.7138671875	-1000.252197265625	167.7836608886719	1175.9091796875	-964.4286499023436	196.2633209228516	1122.421752929688	-990.1219482421874	166.8243408203125	1110.855834960938	-950.4436645507811	196.7036285400391	912.8766479492189	-965.9786987304688	209.6049957275391	859.0124511718751	-998.9814453125	191.3315124511719	850.5878295898439	-951.9713134765625	191.3845977783203	772.6264038085939	-953.93994140625	128.6547088623047	650.9982910156251	-2316.121337890625	0.1601549983024597	0.2578139901161194	-0.4235639870166779	0.3268139958381653	2.785720109939575	-0.3190799951553343	2.933340072631836	0.05051229894161224	-0.05282590165734291	0.008580139838159084	0.08140979707241058	-0.01053589954972267	0.107073001563549	0.03137249872088432	-0.02487999945878982	0.08163829892873764	0	0	
2144	10.715	189.8856811523438	642.636962890625	-94.64566040039058	358.9023742675781	1468.583129882812	-1193.3095703125	318.473876953125	1517.422607421875	-1118.046997070312	320.8114013671875	1516.851684570312	-1273.378295898438	97.28461456298828	1474.04833984375	-1196.578735351562	-8.354593276977539	1281.505981445312	-1205.394775390625	-18.13552284240723	1253.562622070312	-1210.09521484375	-38.92019271850586	1197.63720703125	-1156.863891601562	-30.18634033203125	1193.174926757812	-1205.557983398438	-28.93207359313965	1155.056274414062	-1204.197387695312	-61.54606628417969	1140.603149414062	-1203.869262695312	-72.00247192382812	1081.9814453125	-1150.631958007812	-78.05367279052734	1080.71240234375	-1200.372802734375	-79.43861389160156	1004.755676269531	-1225.96826171875	-69.215576171875	1012.942199707031	-1176.249755859375	-107.8729400634766	960.2331542968751	-1185.872436523438	47.37517547607422	759.9543457031251	-1421.113525390625	9.688594818115234	694.3166503906251	-1395.110717773438	54.07328796386719	698.8315429687501	-1418.130859375	47.12517929077148	345.5006103515626	-1407.985595703125	13.91870594024658	274.9093017578126	-1394.472900390625	60.43644714355469	285.0791931152345	-1404.221069335938	2.899175882339478	65.10704803466805	-1317.933959960938	212.7383270263672	74.64382934570321	-1332.492065429688	165.8219604492188	52.74417877197274	-1437.623046875	43.24332809448242	729.2947387695314	-995.334716796875	85.86478424072266	662.8909301757814	-983.2565307617188	40.12985992431641	667.4942016601564	-1003.154968261719	26.8635196685791	335.6690063476563	-1010.69189453125	74.45864868164062	272.1408386230469	-1011.172485351562	25.36686325073242	275.4563903808594	-1022.038330078125	1.084995746612549	63.50078201293952	-1114.55517578125	211.92822265625	69.09781646728523	-1091.138061523438	165.1813049316406	64.9557723999024	-994.0355834960938	220.4231872558594	1358.582885742188	-1207.705444335938	248.0587005615234	1207.134033203125	-1206.660766601562	131.3388671875	1367.362915039062	-1414.049560546875	123.3810501098633	1213.636962890625	-1471.995483398438	100.352653503418	1152.984130859375	-1481.475708007812	151.5360870361328	1154.962158203125	-1475.943237304688	179.59033203125	927.9844970703126	-1466.490966796875	164.5532684326172	865.0383911132814	-1475.826049804688	198.0596008300781	872.5090942382814	-1439.8125	184.3929595947266	774.6826171875001	-1457.156372070312	150.7096862792969	1361.2548828125	-1000.265991210937	168.8558349609375	1175.431396484375	-964.4545898437499	197.1809692382812	1121.859741210938	-990.1201782226561	167.7015686035156	1110.389038085938	-950.4181518554686	197.1278839111328	912.3401489257814	-965.9606323242188	209.9213562011719	858.4549560546876	-998.9630737304688	191.6197967529297	850.0599975585939	-951.962890625	191.5140075683594	772.1116943359376	-953.94921875	128.6437530517578	650.6396484375001	-2316.22607421875	0.1615779995918274	0.2586530148983002	-0.4256060123443604	0.329681009054184	2.784029960632324	-0.3157629966735838	2.933199882507324	0.04894629865884781	-0.05114959925413132	0.008647480048239231	0.08155480027198792	-0.01057100016623735	0.1090840026736259	0.03158700093626976	-0.02476200088858604	0.08359730243682861	0	0	
2145	10.72	189.8096160888672	642.2211303710938	-94.67562866210933	360.9900207519531	1467.588134765625	-1193.332763671875	320.6961364746094	1516.557373046875	-1118.076293945312	322.9965515136719	1515.92431640625	-1273.412963867188	99.36507415771484	1473.757690429688	-1196.586547851562	-6.990169525146484	1281.73388671875	-1205.441162109375	-16.93078804016113	1253.8486328125	-1210.154052734375	-38.02179336547852	1198.04345703125	-1156.9404296875	-29.23349571228027	1193.519165039062	-1205.618530273438	-28.09461212158203	1155.346923828125	-1204.296752929688	-60.8902702331543	1141.056274414062	-1203.93994140625	-71.67227172851562	1082.4833984375	-1150.7119140625	-77.66747283935547	1081.23876953125	-1200.45947265625	-79.36807250976562	1005.174194335938	-1226.013671875	-69.18869781494141	1013.34033203125	-1176.304931640625	-107.9024505615234	960.6963500976564	-1185.977172851562	47.31676864624023	759.9670410156251	-1421.100708007812	9.584037780761719	694.3253784179689	-1395.174560546875	54.03791046142578	698.8472290039064	-1418.0859375	47.02738189697266	345.4915771484376	-1408.008911132812	13.83778858184814	274.8862609863282	-1394.526977539062	60.36361694335938	285.0790100097657	-1404.2255859375	2.895179986953735	65.12708282470712	-1317.935913085938	212.7401885986328	74.64479064941415	-1332.496704101562	165.8226928710938	52.73687362670907	-1437.628662109375	43.07425689697266	729.2755737304689	-995.2685546875	85.75421142578125	662.8872680664064	-983.2315063476562	39.9887809753418	667.4746093750001	-1003.092163085938	26.83601951599121	335.6682739257813	-1010.668151855469	74.45287322998047	272.1541748046876	-1011.167663574219	25.3321533203125	275.4637145996094	-1022.014526367188	1.089053273200989	63.52231216430671	-1114.5537109375	211.9345855712891	69.09368133544929	-1091.144653320312	165.1848754882812	64.95867919921881	-994.0438232421875	222.0854339599609	1357.875	-1207.6728515625	249.1291656494141	1206.2978515625	-1206.57421875	133.1103363037109	1366.928833007812	-1414.024169921875	124.7146911621094	1213.25537109375	-1471.917602539062	101.5314178466797	1152.671875	-1481.4580078125	152.7182312011719	1154.5126953125	-1475.89111328125	180.1272735595703	927.4616088867189	-1466.488403320312	164.9455108642578	864.5560913085939	-1475.83935546875	198.4687042236328	871.9398803710939	-1439.825805664062	184.5699920654297	774.1513671875001	-1457.185668945312	152.3298645019531	1360.77978515625	-1000.272583007812	169.9336700439453	1174.93994140625	-964.4780883789061	198.1010589599609	1121.28466796875	-990.1159057617186	168.5829925537109	1109.909301757812	-950.3898315429686	197.5565643310547	911.7927856445314	-965.9406127929688	210.2405700683594	857.8869628906251	-998.9449462890625	191.9123687744141	849.5213623046876	-951.9535522460938	191.6475677490234	771.5866088867189	-953.9581298828125	128.6438140869141	650.2753295898439	-2316.333251953125	0.1638430058956146	0.2587180137634277	-0.4270099997520447	0.3327400088310242	2.782320022583008	-0.3113000094890593	2.933069944381714	0.04744600132107735	-0.04936359822750092	0.008703269995748997	0.08175670355558395	-0.01059489976614713	0.1110899969935417	0.03185540065169334	-0.02471409924328327	0.08573400229215622	0	0	
